# xmcd
#
# Track frame offsets:
#  150
#  20577
#  44470
#  68617
#  83567
#  104200
#  121505
#  148887
#  171015
#  193400
#  209837
#  229287
#
# Disc length: 3203 seconds
#
# Revision: 0
# Processed by: cddbd v1.4PL0 Copyright (c) Steve Scherf et al.
# Submitted via: AltoMP3_Maker 3.0
#
DISCID=b30c810c
DTITLE=Wrestlin' with Jimmy - living in a funny world
DYEAR=1900
DGENRE=
TTITLE0=Riding in her Underwear
TTITLE1=Dumbest Thing I Ever Done
TTITLE2=Emmeretta
TTITLE3=A Little Mental Pause
TTITLE4=Dead Man's Shoes
TTITLE5=Backyard Boneyard
TTITLE6=My Generation
TTITLE7=Living in a Funny World
TTITLE8=Ain't Messin' Around
TTITLE9=Doublewide Blues
TTITLE10=Carry Me Away
TTITLE11=JFA
EXTD=
EXTT0=
EXTT1=
EXTT2=
EXTT3=
EXTT4=
EXTT5=
EXTT6=
EXTT7=
EXTT8=
EXTT9=
EXTT10=
EXTT11=
PLAYORDER=
